<svg xmlns="http://www.w3.org/2000/svg" width="155" height="39" viewBox="0 0 155 39" fill="none"><path d="M0 9C0 9.55229 0.447715 10 1 10C1.55228 10 2 9.55229 2 9H0ZM150 27.5C150 26.9477 149.552 26.5 149 26.5C148.448 26.5 148 26.9477 148 27.5H150ZM149 39L154.773 29H143.227L149 39ZM148 27.5C148 28.0523 148.448 28.5 149 28.5C149.552 28.5 150 28.0523 150 27.5H148ZM2 9C2 8.44771 1.55228 8 1 8C0.447715 8 0 8.44771 0 9H2ZM0 2.25C0 2.80228 0.447715 3.25 1 3.25C1.55228 3.25 2 2.80228 2 2.25H0ZM2 6.75C2 6.19772 1.55228 5.75 1 5.75C0.447715 5.75 0 6.19772 0 6.75H2ZM0.645378 12.254C0.856933 12.7641 1.442 13.0062 1.95216 12.7946C2.46232 12.5831 2.70438 11.998 2.49283 11.4879L0.645378 12.254ZM6.01214 15.0072C5.50198 14.7956 4.91692 15.0377 4.70536 15.5478C4.49381 16.058 4.73588 16.6431 5.24604 16.8546L6.01214 15.0072ZM10.3828 17.5C10.9351 17.5 11.3828 17.0523 11.3828 16.5C11.3828 15.9477 10.9351 15.5 10.3828 15.5V17.5ZM14.1484 15.5C13.5962 15.5 13.1484 15.9477 13.1484 16.5C13.1484 17.0523 13.5962 17.5 14.1484 17.5V15.5ZM20.9453 17.5C21.4976 17.5 21.9453 17.0523 21.9453 16.5C21.9453 15.9477 21.4976 15.5 20.9453 15.5V17.5ZM30.7734 15.5C30.2212 15.5 29.7734 15.9477 29.7734 16.5C29.7734 17.0523 30.2212 17.5 30.7734 17.5V15.5ZM39.5898 17.5C40.1421 17.5 40.5898 17.0523 40.5898 16.5C40.5898 15.9477 40.1421 15.5 39.5898 15.5V17.5ZM47.3945 15.5C46.8422 15.5 46.3945 15.9477 46.3945 16.5C46.3945 17.0523 46.8422 17.5 47.3945 17.5V15.5ZM55.9219 17.5C56.4742 17.5 56.9219 17.0523 56.9219 16.5C56.9219 15.9477 56.4742 15.5 55.9219 15.5V17.5ZM65.1719 15.5C64.6196 15.5 64.1719 15.9477 64.1719 16.5C64.1719 17.0523 64.6196 17.5 65.1719 17.5V15.5ZM73.4102 17.5C73.9624 17.5 74.4102 17.0523 74.4102 16.5C74.4102 15.9477 73.9624 15.5 73.4102 15.5V17.5ZM80.6367 15.5C80.0844 15.5 79.6367 15.9477 79.6367 16.5C79.6367 17.0523 80.0844 17.5 80.6367 17.5V15.5ZM87.8633 17.5C88.4156 17.5 88.8633 17.0523 88.8633 16.5C88.8633 15.9477 88.4156 15.5 87.8633 15.5V17.5ZM95.0898 15.5C94.5376 15.5 94.0898 15.9477 94.0898 16.5C94.0898 17.0523 94.5376 17.5 95.0898 17.5V15.5ZM101.738 17.5C102.291 17.5 102.738 17.0523 102.738 16.5C102.738 15.9477 102.291 15.5 101.738 15.5V17.5ZM107.809 15.5C107.256 15.5 106.809 15.9477 106.809 16.5C106.809 17.0523 107.256 17.5 107.809 17.5V15.5ZM113.879 17.5C114.431 17.5 114.879 17.0523 114.879 16.5C114.879 15.9477 114.431 15.5 113.879 15.5V17.5ZM119.949 15.5C119.397 15.5 118.949 15.9477 118.949 16.5C118.949 17.0523 119.397 17.5 119.949 17.5V15.5ZM126.738 17.5C127.291 17.5 127.738 17.0523 127.738 16.5C127.738 15.9477 127.291 15.5 126.738 15.5V17.5ZM134.246 15.5C133.694 15.5 133.246 15.9477 133.246 16.5C133.246 17.0523 133.694 17.5 134.246 17.5V15.5ZM141.828 18.2584C142.338 18.47 142.923 18.2279 143.134 17.7177C143.346 17.2076 143.104 16.6225 142.594 16.411L141.828 18.2584ZM149.089 22.9063C148.877 22.3961 148.292 22.1541 147.782 22.3656C147.272 22.5772 147.03 23.1622 147.242 23.6724L149.089 22.9063ZM148 30.375C148 30.9273 148.448 31.375 149 31.375C149.552 31.375 150 30.9273 150 30.375H148ZM150 36.125C150 35.5727 149.552 35.125 149 35.125C148.448 35.125 148 35.5727 148 36.125H150ZM0 0V2.25H2V0H0ZM0 6.75V9H2V6.75H0ZM0 9C0 10.1507 0.229201 11.2504 0.645378 12.254L2.49283 11.4879C2.17559 10.7228 2 9.88319 2 9H0ZM5.24604 16.8546C6.24964 17.2708 7.34931 17.5 8.5 17.5V15.5C7.61681 15.5 6.77716 15.3244 6.01214 15.0072L5.24604 16.8546ZM8.5 17.5H10.3828V15.5H8.5V17.5ZM14.1484 17.5H16.0312V15.5H14.1484V17.5ZM16.0312 17.5H20.9453V15.5H16.0312V17.5ZM30.7734 17.5H35.6875V15.5H30.7734V17.5ZM35.6875 17.5H39.5898V15.5H35.6875V17.5ZM47.3945 17.5H51.2969V15.5H47.3945V17.5ZM51.2969 17.5H55.9219V15.5H51.2969V17.5ZM65.1719 17.5H69.7969V15.5H65.1719V17.5ZM69.7969 17.5H73.4102V15.5H69.7969V17.5ZM80.6367 17.5H87.8633V15.5H80.6367V17.5ZM95.0898 17.5H98.7031V15.5H95.0898V17.5ZM98.7031 17.5H101.738V15.5H98.7031V17.5ZM107.809 17.5H113.879V15.5H107.809V17.5ZM119.949 17.5H122.984V15.5H119.949V17.5ZM122.984 17.5H126.738V15.5H122.984V17.5ZM134.246 17.5H138V15.5H134.246V17.5ZM138 17.5C139.358 17.5 140.65 17.77 141.828 18.2584L142.594 16.411C141.177 15.8237 139.625 15.5 138 15.5V17.5ZM147.242 23.6724C147.73 24.8501 148 26.1422 148 27.5H150C150 25.8747 149.676 24.3226 149.089 22.9063L147.242 23.6724ZM148 27.5V30.375H150V27.5H148Z" fill="#163300" fill-opacity="0.3"></path></svg>