<svg xmlns="http://www.w3.org/2000/svg" width="155" height="39" viewBox="0 0 155 39" fill="none"><path d="M155 9C155 9.55229 154.552 10 154 10C153.448 10 153 9.55229 153 9H155ZM5 27.5C5 26.9477 5.44771 26.5 6 26.5C6.55229 26.5 7 26.9477 7 27.5H5ZM6 39L0.226501 29H11.7735L6 39ZM7 27.5C7 28.0523 6.55229 28.5 6 28.5C5.44771 28.5 5 28.0523 5 27.5H7ZM153 9C153 8.44771 153.448 8 154 8C154.552 8 155 8.44771 155 9H153ZM155 2.25C155 2.80228 154.552 3.25 154 3.25C153.448 3.25 153 2.80228 153 2.25H155ZM153 6.75C153 6.19772 153.448 5.75 154 5.75C154.552 5.75 155 6.19772 155 6.75H153ZM154.355 12.254C154.143 12.7641 153.558 13.0062 153.048 12.7946C152.538 12.5831 152.296 11.998 152.507 11.4879L154.355 12.254ZM148.988 15.0072C149.498 14.7956 150.083 15.0377 150.295 15.5478C150.506 16.058 150.264 16.6431 149.754 16.8546L148.988 15.0072ZM144.617 17.5C144.065 17.5 143.617 17.0523 143.617 16.5C143.617 15.9477 144.065 15.5 144.617 15.5V17.5ZM140.852 15.5C141.404 15.5 141.852 15.9477 141.852 16.5C141.852 17.0523 141.404 17.5 140.852 17.5V15.5ZM134.055 17.5C133.502 17.5 133.055 17.0523 133.055 16.5C133.055 15.9477 133.502 15.5 134.055 15.5V17.5ZM124.227 15.5C124.779 15.5 125.227 15.9477 125.227 16.5C125.227 17.0523 124.779 17.5 124.227 17.5V15.5ZM115.41 17.5C114.858 17.5 114.41 17.0523 114.41 16.5C114.41 15.9477 114.858 15.5 115.41 15.5V17.5ZM107.605 15.5C108.158 15.5 108.605 15.9477 108.605 16.5C108.605 17.0523 108.158 17.5 107.605 17.5V15.5ZM99.0781 17.5C98.5258 17.5 98.0781 17.0523 98.0781 16.5C98.0781 15.9477 98.5258 15.5 99.0781 15.5V17.5ZM89.8281 15.5C90.3804 15.5 90.8281 15.9477 90.8281 16.5C90.8281 17.0523 90.3804 17.5 89.8281 17.5V15.5ZM81.5898 17.5C81.0376 17.5 80.5898 17.0523 80.5898 16.5C80.5898 15.9477 81.0376 15.5 81.5898 15.5V17.5ZM74.3633 15.5C74.9156 15.5 75.3633 15.9477 75.3633 16.5C75.3633 17.0523 74.9156 17.5 74.3633 17.5V15.5ZM67.1367 17.5C66.5844 17.5 66.1367 17.0523 66.1367 16.5C66.1367 15.9477 66.5844 15.5 67.1367 15.5V17.5ZM59.9102 15.5C60.4624 15.5 60.9102 15.9477 60.9102 16.5C60.9102 17.0523 60.4624 17.5 59.9102 17.5V15.5ZM53.2617 17.5C52.7094 17.5 52.2617 17.0523 52.2617 16.5C52.2617 15.9477 52.7094 15.5 53.2617 15.5V17.5ZM47.1914 15.5C47.7437 15.5 48.1914 15.9477 48.1914 16.5C48.1914 17.0523 47.7437 17.5 47.1914 17.5V15.5ZM41.1211 17.5C40.5688 17.5 40.1211 17.0523 40.1211 16.5C40.1211 15.9477 40.5688 15.5 41.1211 15.5V17.5ZM35.0508 15.5C35.6031 15.5 36.0508 15.9477 36.0508 16.5C36.0508 17.0523 35.6031 17.5 35.0508 17.5V15.5ZM28.2617 17.5C27.7094 17.5 27.2617 17.0523 27.2617 16.5C27.2617 15.9477 27.7094 15.5 28.2617 15.5V17.5ZM20.7539 15.5C21.3062 15.5 21.7539 15.9477 21.7539 16.5C21.7539 17.0523 21.3062 17.5 20.7539 17.5V15.5ZM13.1724 18.2584C12.6622 18.47 12.0772 18.2279 11.8656 17.7177C11.6541 17.2076 11.8961 16.6225 12.4063 16.411L13.1724 18.2584ZM5.91096 22.9063C6.12251 22.3961 6.70758 22.1541 7.21774 22.3656C7.72791 22.5772 7.96997 23.1622 7.75841 23.6724L5.91096 22.9063ZM7 30.375C7 30.9273 6.55229 31.375 6 31.375C5.44771 31.375 5 30.9273 5 30.375H7ZM5 36.125C5 35.5727 5.44771 35.125 6 35.125C6.55229 35.125 7 35.5727 7 36.125H5ZM155 0V2.25H153V0H155ZM155 6.75V9H153V6.75H155ZM155 9C155 10.1507 154.771 11.2504 154.355 12.254L152.507 11.4879C152.824 10.7228 153 9.88319 153 9H155ZM149.754 16.8546C148.75 17.2708 147.651 17.5 146.5 17.5V15.5C147.383 15.5 148.223 15.3244 148.988 15.0072L149.754 16.8546ZM146.5 17.5H144.617V15.5H146.5V17.5ZM140.852 17.5H138.969V15.5H140.852V17.5ZM138.969 17.5H134.055V15.5H138.969V17.5ZM124.227 17.5H119.312V15.5H124.227V17.5ZM119.312 17.5H115.41V15.5H119.312V17.5ZM107.605 17.5H103.703V15.5H107.605V17.5ZM103.703 17.5H99.0781V15.5H103.703V17.5ZM89.8281 17.5H85.2031V15.5H89.8281V17.5ZM85.2031 17.5H81.5898V15.5H85.2031V17.5ZM74.3633 17.5H67.1367V15.5H74.3633V17.5ZM59.9102 17.5H56.2969V15.5H59.9102V17.5ZM56.2969 17.5H53.2617V15.5H56.2969V17.5ZM47.1914 17.5H41.1211V15.5H47.1914V17.5ZM35.0508 17.5H32.0156V15.5H35.0508V17.5ZM32.0156 17.5H28.2617V15.5H32.0156V17.5ZM20.7539 17.5H17V15.5H20.7539V17.5ZM17 17.5C15.6422 17.5 14.3501 17.77 13.1724 18.2584L12.4063 16.411C13.8226 15.8237 15.3747 15.5 17 15.5V17.5ZM7.75841 23.6724C7.27005 24.8501 7 26.1422 7 27.5H5C5 25.8747 5.32365 24.3226 5.91096 22.9063L7.75841 23.6724ZM7 27.5V30.375H5V27.5H7Z" fill="#163300" fill-opacity="0.3"></path></svg>